<?xml version="1.0" encoding="iso-8859-1"?>
<!-- Uploaded to: SVG Repo, www.svgrepo.com, Generator: SVG Repo Mixer Tools -->
<svg height="800px" width="800px" version="1.1" id="Layer_1" xmlns="http://www.w3.org/2000/svg" xmlns:xlink="http://www.w3.org/1999/xlink" 
	 viewBox="0 0 512 512" xml:space="preserve">
<path style="fill:#F4D853;" d="M511.586,449.681l-33.645-181.674c-2.174-11.746-12.42-20.265-24.358-20.265
	c-0.023,0-0.045,0-0.068,0c-28.353,0.078-43.416,5.097-56.703,9.528c-11.712,3.904-20.961,6.986-41.718,6.988
	c-20.749-0.002-30-3.084-41.708-6.986c-13.401-4.468-28.593-9.53-57.387-9.53c-0.005,0-0.005,0-0.008,0
	c-28.786,0-43.973,5.061-57.37,9.528c-11.712,3.904-20.961,6.988-41.72,6.988c-20.753,0-30.003-3.084-41.715-6.986
	c-13.289-4.431-28.35-9.452-56.698-9.53c-0.025,0-0.045,0-0.069,0c-11.938,0-22.184,8.519-24.358,20.265L0.415,449.681
	c-1.341,7.239,0.606,14.696,5.313,20.354s11.687,8.932,19.046,8.932h462.452c7.36,0,14.339-3.273,19.046-8.932
	C510.98,464.377,512.925,456.919,511.586,449.681z"/>
<path style="fill:#E9A440;" d="M511.586,449.681l-33.645-181.674c-2.174-11.746-12.42-20.265-24.358-20.265
	c-0.023,0-0.045,0-0.068,0c-28.353,0.078-43.416,5.097-56.703,9.528c-11.712,3.904-20.961,6.986-41.718,6.988
	c-20.749-0.002-30-3.084-41.708-6.986c-13.398-4.468-28.586-9.53-57.367-9.53v231.226h231.208c7.36,0,14.339-3.273,19.046-8.932
	C510.98,464.377,512.925,456.919,511.586,449.681z"/>
<path style="fill:#8CB7E8;" d="M477.695,266.659l-21.162-114.268c-2.172-11.743-12.417-20.262-24.358-20.262H79.829
	c-11.941,0-22.186,8.519-24.36,20.264L34.06,268.007c-1.339,7.226,0.6,14.671,5.292,20.328c4.692,5.657,11.652,8.937,19,8.957
	c20.378,0.056,29.552,3.115,41.166,6.986c13.4,4.464,28.589,9.528,57.385,9.528c28.798,0,43.986-5.064,57.387-9.531
	c11.708-3.901,20.956-6.985,41.707-6.985c20.757-0.002,30.008,3.082,41.72,6.986c13.398,4.466,28.586,9.53,57.377,9.53
	c28.799-0.002,43.986-5.064,57.387-9.531c11.606-3.868,20.776-6.925,41.13-6.985h0.005c13.684,0,24.774-11.091,24.774-24.774
	C478.39,270.499,478.15,268.537,477.695,266.659z"/>
<path style="fill:#6398DE;" d="M477.695,266.659l-21.162-114.268c-2.172-11.743-12.417-20.262-24.358-20.262H256.018V297.29
	c20.744,0,29.992,3.084,41.698,6.986c13.398,4.466,28.586,9.53,57.377,9.53c28.799-0.002,43.986-5.064,57.387-9.531
	c11.606-3.868,20.776-6.925,41.13-6.985h0.005c13.684,0,24.774-11.091,24.774-24.774C478.39,270.499,478.15,268.537,477.695,266.659
	z"/>
<path style="fill:#E07188;" d="M256,33.032c-40.981,0-74.323,33.339-74.323,74.323c0,40.981,33.341,74.323,74.323,74.323
	s74.323-33.343,74.323-74.323C330.323,66.372,296.982,33.032,256,33.032z"/>
<path style="fill:#DC4161;" d="M330.323,107.355c0-40.977-33.331-74.313-74.304-74.323v148.644
	C296.992,181.666,330.323,148.33,330.323,107.355z"/>
</svg>