<?xml version="1.0" encoding="utf-8"?>
<!-- Generator: Adobe Illustrator 27.5.0, SVG Export Plug-In . SVG Version: 6.00 Build 0)  -->
<svg version="1.1" id="Capa_1" xmlns="http://www.w3.org/2000/svg" xmlns:xlink="http://www.w3.org/1999/xlink" x="0px" y="0px"
	 viewBox="0 0 2122 2122" style="enable-background:new 0 0 2122 2122;" xml:space="preserve">
<g>
	<path style="fill:#A0D4CE;" d="M1991.558,1532.307c-24.245-46.311-71.633-89.771-140.847-129.169
		c-0.155-0.089-0.348-0.114-0.527-0.05c-0.173,0.065-0.313,0.199-0.377,0.368c-3.402,8.669-8.287,17.214-14.514,25.412
		c-11.082,14.582-26.494,24.935-47.109,31.638c-0.228,0.074-0.393,0.273-0.432,0.511c-0.034,0.233,0.064,0.472,0.263,0.611
		c14.365,10.224,25.953,20.943,34.454,31.871c5.079,6.485,9.18,13.212,12.194,20c8.446,18.997,8.679,39.041,0.7,59.588
		c-8.986,23.113-32.829,41.479-65.406,50.386c-14.692,4.012-30.064,6.171-44.925,8.257c-13.168,1.847-26.783,3.759-39.911,6.957
		c-53.236,12.974-99.313,46.861-143.876,79.631c-51.777,38.083-105.321,77.457-169.128,82.264
		c-36.401,2.775-72.84-6.322-108.048-15.084c-8.307-2.071-16.891-4.206-25.327-6.152c-93.161-21.504-192.188-24.026-286.353-7.309
		c-10.024,1.778-20.198,3.804-30.039,5.76c-31.057,6.182-63.161,12.642-95.217,12.061c-67.518-1.132-129.666-32.298-189.77-62.442
		c-46.742-23.441-95.078-47.681-146.294-58.277c-27.036-5.601-55.068-7.398-82.178-9.14c-23.451-1.505-47.701-3.064-71.197-7.07
		c-21.152-3.6-71.479-16.241-81.93-55.734c-4.11-15.615-1.191-33.803,8.679-54.056c1.648-3.411,3.574-7.006,5.884-10.983
		c6.161-10.536,13.153-20.671,20.773-30.129c7.349-9.146,15.531-17.915,25.01-26.817c0.159-0.149,0.228-0.367,0.189-0.581
		c-0.04-0.214-0.189-0.392-0.393-0.472c-8.148-3.227-15.242-7.021-21.693-11.589c-20.833-14.781-29.796-33.123-27.398-56.087
		c0.025-0.239-0.084-0.467-0.282-0.596c-0.209-0.134-0.457-0.134-0.666-0.02c-101.035,58.668-154.436,126.915-154.436,197.36
		c0,40.685,17.646,80.605,52.447,118.644c33.589,36.712,82.472,70.982,145.287,101.861
		c125.147,61.519,302.157,106.731,498.499,127.323c177.391-5.685,359.122-28.788,519.457-49.165
		c80.054-10.188,162.833-20.719,241.874-43.48c56.598-16.291,116.756-40.516,183.911-74.071
		c72.954-36.475,154.15-84.021,203.22-160.117c17.741-27.552,30.02-59.195,35.497-91.514
		C1991.647,1532.57,1991.623,1532.426,1991.558,1532.307z"/>
	<path style="fill:#70B7AD;" d="M1991.558,1532.307c-0.124-0.243-0.402-0.367-0.661-0.332c-0.269,0.039-0.482,0.248-0.525,0.521
		c-5.453,32.145-17.661,63.629-35.318,91.036c-48.902,75.834-129.913,123.271-202.713,159.666
		c-67.09,33.519-127.173,57.719-183.692,73.986c-78.952,22.731-161.682,33.256-241.686,43.441
		c-160.31,20.377-342.007,43.47-519.339,49.156c-0.332,0.009-0.6,0.278-0.615,0.61c-0.011,0.338,0.237,0.62,0.57,0.655
		c82,8.59,167.138,12.945,253.056,12.945c253.458,0,491.757-37.472,671.001-105.52c87.193-33.103,155.659-71.657,203.493-114.592
		c49.608-44.528,74.761-91.846,74.761-140.654C2009.889,1579.368,2003.723,1555.504,1991.558,1532.307z"/>
	<g>
		<path style="fill:#F9B25C;" d="M1788.75,1460.595c-0.168-0.124-0.377-0.154-0.566-0.089c-20.149,6.559-42.428,8.972-66.012,11.524
			c-26.295,2.85-53.49,5.794-77.322,15.034c-21.664,8.396-40.855,22.333-59.41,35.814c-17.387,12.632-35.366,25.695-55.336,34.156
			c-49.057,20.784-101.091,12.502-156.18,3.748c-35.254-5.605-71.698-11.395-107.026-8.719
			c-49.849,3.809-96.816,24.523-142.237,44.557c-44.622,19.682-90.759,40.035-139.557,44.3
			c-88.256,7.726-168.796-36.971-246.725-80.173c-66.647-36.946-135.56-75.158-210.435-82.244
			c-23.192-2.194-50.088,0.134-78.568,2.597c-46.782,4.047-95.158,8.227-133.47-6.946c-0.228-0.095-0.486-0.045-0.671,0.129
			c-9.518,8.937-17.741,17.755-25.128,26.946c-0.12,0.144-0.165,0.338-0.124,0.521c0.034,0.184,0.154,0.343,0.317,0.433
			c8.749,4.756,17.558,10.104,26.072,15.273c17.27,10.476,35.13,21.316,53.992,28.232c34.076,12.487,71.23,12.1,107.164,11.727
			c30.386-0.317,61.836-0.635,91.438,6.778c42.82,10.739,80.356,37.179,116.656,62.75c41.335,29.116,84.071,59.22,134.343,65.605
			c38.267,4.876,76.619-4.737,113.708-14.017c15.149-3.788,30.808-7.705,46.255-10.585c49.27-9.21,101.226-8.406,150.227,2.329
			c25.054,5.491,50.5,13.684,75.113,21.603c43.51,14.002,88.113,28.357,132.481,28.357c15.352,0,30.676-1.718,45.914-5.765
			c53.966-14.33,95.341-55.163,135.356-94.656c39.444-38.927,80.228-79.175,133.027-93.966c23.361-6.549,48.119-7.711,72.055-8.838
			c14.741-0.69,29.984-1.405,44.81-3.366c20.889-2.771,38.177-9.126,54.408-20.01c0.149-0.094,0.248-0.254,0.273-0.427
			c0.029-0.174-0.014-0.352-0.124-0.491C1814.897,1481.692,1803.213,1470.888,1788.75,1460.595z"/>
		<path style="fill:#F9B25C;" d="M1752.832,1225.206c-0.14-0.104-0.318-0.149-0.478-0.124c-9.642,1.391-19.716,2.483-29.462,3.535
			c-26.317,2.845-53.531,5.784-77.378,15.029c-21.668,8.397-40.853,22.333-59.408,35.814
			c-17.387,12.631-35.367,25.694-55.337,34.155c-49.056,20.784-101.091,12.507-156.18,3.749
			c-35.258-5.606-71.692-11.39-107.025-8.719c-49.85,3.808-96.821,24.523-142.243,44.563
			c-44.617,19.682-90.759,40.034-139.551,44.299c-2.354,0.209-4.728,0.308-7.031,0.407l-2.284,0.104
			c-0.193,0.01-0.366,0.104-0.481,0.258c-0.114,0.154-0.154,0.352-0.105,0.536c4.122,16.008,9.429,32.795,15.774,49.9
			c2.969,8.029,6.748,18.61,9.608,29.32c0.045,0.164,0.154,0.303,0.303,0.387c0.094,0.055,0.203,0.084,0.313,0.084
			c0.06,0,0.119-0.009,0.173-0.024c9.891-2.84,19.916-6.773,29.807-11.683c15.992-7.959,31.235-17.835,45.972-27.388
			c13.769-8.922,28.004-18.148,42.795-25.769c58.733-30.263,128.539-36.077,191.482-15.963
			c14.528,4.642,29.051,10.744,43.093,16.638c29.388,12.344,59.731,25.089,91.661,25.089c1.471,0,2.95-0.03,4.43-0.084
			c46.905-1.743,85.957-31.038,123.726-59.364c33.526-25.144,68.188-51.146,108.679-58.589c17.815-3.277,36.33-2.8,54.224-2.324
			c15.779,0.403,32.095,0.83,47.969-1.296c13.028-1.738,25.606-8.158,40.768-20.814c0.264-0.218,0.303-0.601,0.1-0.869
			C1809.435,1273.234,1785.259,1250.057,1752.832,1225.206z"/>
		<path style="fill:#F9B25C;" d="M349.651,1363.833c10.114,5.849,20.571,11.897,31.042,16.698
			c68.709,31.524,146.632,13.386,221.989-4.146c4.757-1.108,9.494-2.21,14.206-3.292c68.057-15.63,165.906-30.084,229.6,24.737
			c10.864,9.349,20.531,20.616,29.881,31.509c4.325,5.034,8.798,10.248,13.316,15.178c0.119,0.134,0.293,0.209,0.466,0.209
			c0.074,0,0.155-0.015,0.229-0.04c0.243-0.094,0.402-0.328,0.407-0.591c0.2-17.686,1.728-36.151,4.538-54.89
			c0.046-0.318-0.154-0.626-0.466-0.71c-53.406-14.439-105.451-43.281-155.787-71.181c-66.653-36.941-135.58-75.143-210.459-82.228
			c-23.202-2.195-50.119,0.139-78.603,2.602c-27.98,2.418-56.907,4.93-83.902,3.168c-0.159-0.015-0.388,0.064-0.512,0.214
			c-19.567,21.842-37.348,44.99-52.854,68.798c-1.678,2.577-3.392,5.194-5.125,7.835c-4.315,6.569-8.768,13.366-13.067,20.248
			c-0.109,0.174-0.124,0.393-0.045,0.586c0.08,0.189,0.247,0.328,0.447,0.372C313.737,1343.054,331.994,1353.615,349.651,1363.833z"
			/>
		<path style="fill:#F9B25C;" d="M1799.082,1020.918c-0.179-0.174-0.438-0.228-0.671-0.144
			c-21.389,7.939-45.595,10.561-71.22,13.331c-26.296,2.845-53.485,5.79-77.318,15.03c-21.668,8.396-40.858,22.339-59.413,35.819
			c-17.389,12.631-35.367,25.695-55.332,34.155c-49.051,20.779-101.086,12.508-156.175,3.744
			c-35.263-5.606-71.732-11.4-107.03-8.714c-49.851,3.808-96.816,24.523-142.238,44.557
			c-44.622,19.682-90.764,40.034-139.562,44.299c-0.908,0.085-1.812,0.12-2.711,0.159c-0.665,0.03-1.326,0.055-1.986,0.099
			c-0.258,0.02-0.481,0.189-0.561,0.432c-4.329,12.929-7.825,24.573-10.685,35.605c-0.049,0.199-0.005,0.407,0.124,0.566
			c0.124,0.144,0.303,0.228,0.492,0.228h0.044c18.178-1.221,38.123-7.001,57.671-16.707c15.993-7.959,31.231-17.835,45.972-27.388
			c13.769-8.922,28.004-18.148,42.796-25.769c58.738-30.263,128.538-36.072,191.483-15.963c14.527,4.647,29.05,10.744,43.097,16.643
			c29.389,12.344,59.736,25.089,91.667,25.084c1.469,0,2.945-0.025,4.419-0.079c46.906-1.743,85.962-31.038,123.733-59.369
			c33.519-25.143,68.181-51.141,108.673-58.589c17.82-3.277,36.33-2.8,54.224-2.323c15.78,0.402,32.096,0.829,47.97-1.296
			c13.034-1.738,25.605-8.158,40.769-20.814c0.262-0.219,0.303-0.601,0.099-0.869
			C1819.598,1042.338,1810.334,1031.956,1799.082,1020.918z"/>
		<path style="fill:#F9B25C;" d="M350.321,1120.42c10.114,5.844,20.565,11.892,31.036,16.693
			c27.294,12.527,56.038,17.209,85.507,17.209c44.696,0,91.056-10.784,136.467-21.35c4.763-1.113,9.505-2.215,14.221-3.297
			c41.559-9.548,76.786-14.2,107.581-14.2c0.844,0,1.694,0.005,2.532,0.01h0.005c0.288,0,0.541-0.194,0.615-0.476
			c0.075-0.278-0.054-0.576-0.307-0.716c-63.748-35.153-126.627-67.243-195.012-73.718c-23.193-2.195-50.094,0.139-78.574,2.602
			c-42.194,3.659-85.818,7.423-122.184-3.093c-0.258-0.064-0.536,0.019-0.69,0.234c-6.311,8.575-12.403,17.368-18.112,26.136
			c-1.644,2.527-3.327,5.089-5.025,7.676c-4.345,6.624-8.838,13.47-13.168,20.407c-0.109,0.179-0.124,0.393-0.044,0.586
			c0.079,0.189,0.249,0.328,0.447,0.373C314.403,1099.641,332.665,1110.202,350.321,1120.42z"/>
		<path style="fill:#F9B25C;" d="M880.682,1188.379c-0.268-0.084-0.566,0.02-0.725,0.253c-0.159,0.239-0.144,0.551,0.045,0.769
			c16.226,18.848,31.354,35.174,52.243,44.086c1.679,0.72,3.511,1.415,5.591,2.13c0.069,0.025,0.139,0.034,0.208,0.034
			c0.258,0,0.501-0.159,0.596-0.417c4.022-10.943,8.163-22.016,11.688-31.405c0.07-0.189,0.05-0.397-0.059-0.566
			c-0.105-0.164-0.288-0.273-0.487-0.293C927.494,1201.15,904.892,1196.378,880.682,1188.379z"/>
		<path style="fill:#F9B25C;" d="M1831.773,858.139c-35.55-46.876-94.547-87.452-135.827-113.891
			c-0.264-0.159-0.616-0.124-0.824,0.119c-0.204,0.238-0.204,0.591,0,0.834c3.053,3.54,6.042,7.145,8.881,10.705
			c12.806,16.092,24.827,35.759,16.932,59.582h0.005c-3.996,12.011-12.259,23.699-24.553,34.746
			c-6.807,6.118-12.948,8.684-18.743,7.92c-10.834-1.475-19.245-14.632-28.148-28.56c-12.766-19.975-27.254-42.611-52.229-33.371
			c-19.558,7.215-27.779,29.617-27.145,47.378c0.672,19.607,9.713,38.212,17.686,54.627l13.273,27.304
			c0.079,0.169,0.233,0.293,0.416,0.337c0.05,0.015,0.105,0.02,0.154,0.02c0.135,0,0.263-0.039,0.373-0.119
			c25.601-18.416,53.823-36.285,86.681-42.328c17.816-3.272,36.311-2.785,54.221-2.329c15.779,0.417,32.095,0.829,47.974-1.296
			c13.034-1.733,25.61-8.153,40.773-20.809C1831.938,858.79,1831.977,858.408,1831.773,858.139z"/>
		<path style="fill:#F9B25C;" d="M354.671,925.904c10.114,5.849,20.57,11.896,31.042,16.698
			c27.298,12.528,56.048,17.215,85.515,17.215c44.707,0,91.067-10.79,136.483-21.356c4.752-1.107,9.488-2.21,14.2-3.292
			c50.864-11.688,125.481-24.513,185.927-1.191c0.283,0.114,0.606,0.005,0.769-0.258l1.098-1.783
			c3.088-5.025,6.281-10.219,9.111-15.477c15.586-28.883,21.359-63.49,16.271-97.447c-2.562-17.145-7.627-33.188-15.064-47.716
			c-0.223-0.402-0.527-0.934-0.859-1.539c-0.085-0.154-0.239-0.268-0.412-0.313c-0.676-0.154-1.375-0.283-2.031-0.387
			c-0.989-0.184-1.961-0.323-2.925-0.462l-0.412-0.059c-0.665-0.099-1.351-0.199-2.041-0.268l-0.993-0.104
			c-0.581-0.074-1.182-0.129-1.763-0.154c-13.341-1.063-25.561,1.311-36.331,7.045c-9.995,5.353-18.232,13.411-26.196,21.201
			c-3.59,3.515-7.303,7.15-11.122,10.476c-25.932,22.567-67.849,31.643-97.451,21.117c-14.956-5.308-33.888-17.954-39.131-48.053
			c-0.228-1.375-0.511-2.706-0.789-3.982c-0.258-1.202-0.541-2.354-0.844-3.471c-0.268-1.077-0.591-2.165-1.043-3.5
			c-0.158-0.551-0.348-1.078-0.546-1.579c-0.501-1.405-1.087-2.8-1.807-4.26l-0.615-1.206c-1.138-2.095-2.404-3.927-3.774-5.457
			l-0.824-0.879c-0.596-0.591-1.167-1.113-1.743-1.589c-0.571-0.467-1.187-0.914-1.892-1.36c-0.595-0.382-1.246-0.75-1.965-1.117
			c-0.626-0.333-1.302-0.626-2.155-0.933l-2.219-0.7l-2.31-0.487c-1.077-0.189-2.263-0.323-3.708-0.407
			c-0.194,0-0.373,0.084-0.492,0.234c-0.124,0.149-0.169,0.348-0.128,0.536c3.222,15.223,3.282,31.569,3.331,45.987
			c0.049,17.582,0.099,35.754-2.805,53.326c-4.871,29.27-18.401,57.586-38.093,79.741c-5.725,6.445-14.647,15.407-25.954,18.833
			c-9.21,2.785-22.184,1.495-28.946-7.905c-6.961-9.677-3.848-23.411,2.324-32.721c4.325-6.554,10.173-12.09,15.829-17.443
			c2.849-2.691,5.789-5.477,8.52-8.367c16.346-17.284,27.864-41.797,33.311-70.893c2.344-12.527,2.508-25.343,2.667-37.736
			c0.074-5.869,0.149-11.936,0.462-17.86c0.01-0.209-0.079-0.407-0.244-0.536c-0.164-0.129-0.372-0.174-0.576-0.104
			c-0.412,0.124-0.805,0.229-1.197,0.333l-0.257,0.069c-37.775,10.338-71.886,32.487-100.267,52.79l-1.197,0.854
			c-7.497,5.362-15.248,10.904-23.942,14.131c-12.602,4.677-22.234,4.811-28.614,0.392c-6.082-4.22-9.18-12.443-9.205-24.434
			c0-0.263-0.164-0.496-0.408-0.591c-0.234-0.094-0.521-0.035-0.695,0.159c-21.464,23.371-40.904,48.356-57.78,74.274
			c-1.653,2.537-3.342,5.109-5.045,7.711c-4.339,6.609-8.828,13.446-13.148,20.372c-0.109,0.179-0.123,0.392-0.045,0.586
			c0.08,0.189,0.249,0.328,0.447,0.373C318.758,905.13,337.014,915.691,354.671,925.904z"/>
		<path style="fill:#F9B25C;" d="M881.312,991.355c15.988,18.634,32.518,37.904,55.292,47.621
			c10.77,4.598,22.542,6.902,35.209,6.902c9.047,0,18.55-1.177,28.465-3.53c0.239-0.059,0.428-0.253,0.472-0.496
			c7.055-34.836,11.052-69.021,11.882-101.613c0.7-28.381-13.039-40.894-27.988-50.183c-0.05-0.03-0.1-0.049-0.155-0.064
			c-14.707-4.479-29.429-12.612-42.561-23.52c-12.895-10.7-24.428-23.302-35.585-35.492c-11.758-12.849-23.917-26.136-37.711-37.244
			c-2.567-2.07-5.199-4.032-7.845-5.849c-1.623-1.008-3.104-1.877-4.519-2.657c-0.247-0.139-0.536-0.104-0.729,0.084
			c-0.204,0.179-0.268,0.462-0.165,0.715c22.681,55.124,21.301,119.954-3.689,173.429c-0.119,0.258-0.054,0.561,0.159,0.75
			C862.539,969.473,872.083,980.596,881.312,991.355z"/>
		<path style="fill:#F9B25C;" d="M1039.215,1027.546c0.099,0,0.199-0.024,0.288-0.069c15.005-7.696,29.409-17.011,43.337-26.022
			c13.768-8.907,28.009-18.118,42.8-25.739c58.738-30.263,128.539-36.077,191.482-15.963c14.528,4.642,29.051,10.745,43.092,16.638
			c30.74,12.91,62.493,26.266,96.091,25.005c24.449-0.908,48.65-9.156,76.156-25.953c0.174-0.104,0.288-0.293,0.303-0.501
			c0.348-5.392,0.452-9.548,0.338-13.495l-0.035-0.735c-0.04-1.008-0.084-2.026-0.144-3.054c-0.165-2.656-0.398-5.139-0.715-7.596
			c-6.232-48.083-28.6-89.374-61.375-113.281c-5.875-4.28-13.798-9.354-23.034-10.616c-22.149-3.014-36.513,14.573-51.647,33.202
			c-9.627,11.847-19.583,24.101-31.956,31.161c-27.973,15.949-62.487,2.011-83.529-14.781
			c-12.989-10.382-24.234-23.083-35.113-35.367c-8.908-10.064-18.124-20.471-28.283-29.602
			c-27.303-24.538-58.509-33.858-83.483-24.955c-0.726,0.258-1.42,0.516-2.106,0.795c-22.283,8.937-35.863,30.382-48.996,51.122
			c-6.942,10.958-14.112,22.284-22.503,31.693c-0.055,0.064-0.099,0.139-0.124,0.219c-6.385,18.972-10.114,40.004-10.789,60.818
			c-1.024,32.358-4.518,63.867-10.681,96.325c-0.044,0.238,0.05,0.482,0.243,0.626
			C1038.947,1027.502,1039.081,1027.546,1039.215,1027.546z"/>
	</g>
	<path style="fill:#9A5042;" d="M1623.117,678.36c-84.209-60.714-190.118-96.697-272.982-121.26
		c-9.299-2.761-19.175-5.536-31.086-8.739c-0.204-0.054-0.412,0-0.576,0.129c-0.159,0.139-0.244,0.343-0.219,0.551
		c0.507,5.169,0.76,9.439,0.785,13.44c0.214,37.929-20.164,82.467-59.523,94.205c-16.311,4.865-33.778,3.53-50.67,2.249
		c-14.013-1.068-28.51-2.175-42.472,0.194c-20.899,3.54-39.642,14.627-57.771,25.347c-17.969,10.631-36.544,21.618-57.14,25.169
		c-35.684,6.147-70.009-10.656-103.192-26.916c-32.268-15.809-65.639-32.15-100.709-27.89c-19.325,2.349-60.804,1.46-79.542-18.664
		c-8.381-8.997-11.221-20.819-8.436-35.129c0.507-2.597,1.187-5.174,2.081-7.885c2.001-6.102,4.801-12.11,7.512-17.924
		c4.479-9.613,9.116-19.553,10.293-30.238c0.447-4.042,0.397-8.069,0.183-12.875c-0.01-0.189-0.105-0.363-0.253-0.477
		c-0.149-0.119-0.348-0.169-0.532-0.109c-47.282,11.455-94.294,26.966-139.724,46.102c-52.637,22.15-103.763,44.503-150.649,74.349
		c-38.124,24.275-68.029,50.208-91.419,79.284c-5.655,7.026-11.842,20.059-16.138,34.012c-0.085,0.273,0.02,0.561,0.253,0.72
		c0.239,0.154,0.552,0.139,0.76-0.044c3.367-2.82,6.778-5.516,10.139-8.014c26.565-19.737,57.051-34.25,86.539-48.282
		c9.663-4.597,19.652-9.354,29.359-14.225c34.325-17.245,73.307-33.892,101.637-13.163c11.763,8.6,18.709,22.169,25.427,35.298
		c7.046,13.763,14.33,27.998,27.195,36.583c31.345,20.919,73.549-4.349,90.238-16.186c2.611-1.847,5.238-3.739,7.884-5.646
		c24.325-17.507,49.508-35.625,78.176-32.532c32.155,3.461,53.257,31.763,73.669,59.135c20.77,27.86,42.254,56.667,75.437,59.344
		c1.594,0.129,3.193,0.194,4.801,0.194c21.147,0,43.123-11.261,65.387-33.525c5.591-5.591,11.027-11.569,16.286-17.348
		c12.383-13.615,25.188-27.691,40.863-37.641c57.208-36.281,134.627-7.224,178.439,38.545l0.293,0.313
		c21.266,22.224,47.721,49.895,75.045,36.981c14.18-6.698,21.043-22.16,27.676-37.11c7.303-16.464,14.2-32.015,30.02-36.549
		c15.759-4.528,30.684,5.194,45.133,14.573c3.863,2.513,7.855,5.109,11.763,7.353c12.646,7.274,31.077,7.994,41.96,1.663
		c6.162-3.59,9.394-9.091,9.355-15.914c-0.01-2.319-0.451-4.647-0.884-6.906c-0.695-3.644-1.351-7.09-0.288-10.392
		c0.875-2.736,2.84-4.946,5.685-6.39c4.34-2.214,10.526-2.523,15.78-0.779c3.803,1.251,7.433,3.212,10.938,5.109
		c4.091,2.214,8.316,4.498,12.904,5.724c9.26,2.483,18.898,0.164,27.1-6.554c11.415-9.35,18.437-25.739,17.473-40.784
		C1623.364,678.648,1623.27,678.474,1623.117,678.36z"/>
	<path style="fill:#EFEBE8;" d="M1302.916,486.57c-5.307-13.232-11.306-26.181-17.105-38.704
		c-15.968-34.324-32.478-69.816-60.153-96.901c-1.753-1.723-3.694-3.5-5.928-5.441c-0.109-0.094-0.244-0.149-0.387-0.154
		c-7.915-0.372-15.045-1.177-21.202-2.393c-0.194-0.02-0.397,0.015-0.546,0.149c-0.15,0.134-0.228,0.328-0.214,0.526
		c0.254,3.193,0.344,6.589,0.293,10.68c-0.005,0.209,0.094,0.407,0.264,0.526c7.105,5.109,13.559,11.449,19.731,19.394
		c14.677,18.887,12.775,47.457-4.528,67.939c-5.144,6.093-10.7,10.094-16.514,11.906c-8.933,2.786-18.545,0.551-27.84-1.604
		c-1.013-0.238-2.031-0.472-3.038-0.7c-1.435-0.323-2.885-0.621-4.349-0.909c-0.159-0.019-0.318,0.005-0.458,0.085
		c-1.618,1.013-2.859,1.981-3.907,3.053c-3.844,3.932-5.725,9.295-7.547,14.479c-2.066,5.894-4.021,11.459-8.605,15.089
		c-9.453,7.473-23.132,1.301-27.11-0.77c-2.77-1.45-5.506-3.128-8.158-4.757c-3.768-2.314-7.665-4.702-11.742-6.475
		c-0.268-0.139-0.61-0.03-0.779,0.224c-5.358,7.94-9.285,17.284-13.083,26.326c-7.047,16.752-13.699,32.581-28.705,40.625
		c-14.741,7.894-31.722,4.29-40.535,1.425c-10.313-3.347-20.024-8.699-29.419-13.878c-2.775-1.529-5.551-3.058-8.346-4.543
		c-29.638-15.74-55.065-21.594-77.686-17.929c-24.444,3.957-49.781,23.47-52.224,49.885c-5.869-23.232,1.176-49.508,18.133-66.493
		c8.242-8.257,18.888-14.349,30.779-17.622c0.268-0.074,0.461-0.318,0.466-0.596c0.005-0.283-0.174-0.531-0.437-0.621
		c-6.306-2.046-11.643-4.583-16.32-7.76c-5.999-4.082-11.093-9.727-14.732-16.326c-0.164-0.303-0.536-0.422-0.844-0.258
		c-5.904,2.979-12.085,5.775-18.058,8.481c-4.444,2.011-9.032,4.091-13.456,6.221c-20.883,10.044-46.539,27.581-50.163,54.095
		c-0.76,5.571-0.476,11.271-0.204,16.788l0.124,2.552c0.209,4.747,0.264,8.719-0.173,12.676
		c-1.156,10.477-5.746,20.322-10.185,29.841c-2.725,5.844-5.541,11.891-7.571,18.063c-0.084,0.263,0.009,0.546,0.229,0.71
		c23.186,17.14,53.524,21.976,79.184,12.636c11.287-4.101,22.17-10.729,32.696-17.144c20.249-12.334,39.384-23.982,61.003-19.097
		c15.571,3.51,26.851,14.662,38.798,26.465c7.567,7.477,15.387,15.208,24.383,20.774c10.264,6.365,22.21,9.359,34.246,9.359
		c23.312,0,46.971-11.246,59.413-31.067c3.341-5.317,6.038-11.236,8.639-16.956c4.881-10.725,9.931-21.817,19.33-28.818
		c13.952-10.432,33.142-8.635,46.757-5.298c5.696,1.4,11.415,3.207,16.941,4.955c9.911,3.133,20.164,6.375,30.701,7.383
		c32.794,3.177,66.756-16.862,82.659-48.574c3.491-6.916,5.944-13.838,7.512-21.152
		C1302.971,486.818,1302.961,486.689,1302.916,486.57z"/>
	<path style="fill:#65882D;" d="M1283.875,232.019c-1.197-2.696-4.102-4.622-8.634-5.725c-5.944-1.45-12.513-2.055-20.745-1.956
		c-11.648,0.174-24.091,2.04-39.16,5.869c-1.569,0.402-3.207,0.864-4.87,1.385c-0.159,0.05-0.293,0.159-0.373,0.303
		c-9.365,17.378-23.569,39.141-38.068,44.136c-0.189,0.064-0.332,0.214-0.397,0.407c-0.06,0.189-0.029,0.397,0.084,0.561
		c7.547,10.72,13.57,21.936,17.9,33.331c0.099,0.253,0.337,0.412,0.597,0.412c0.049,0,0.098-0.005,0.148-0.02
		c15.397-3.679,33.723-15.625,46.389-24.999c17.279-12.785,31.912-26.494,37.07-32.13
		C1279.495,247.402,1286.715,238.425,1283.875,232.019z"/>
	<g>
		<path style="fill:#77A02C;" d="M1303.313,320.172c-4.056-4.608-9.101-8.898-15.879-13.49
			c-9.647-6.539-20.907-12.145-35.446-17.647c-4.956-1.872-10.169-3.366-15.496-4.444c-0.169-0.034-0.363,0.01-0.501,0.109
			c-12.571,9.305-30.745,21.157-45.933,24.791c-0.179,0.039-0.328,0.159-0.412,0.317c-0.085,0.164-0.099,0.353-0.035,0.521
			c2.319,6.112,4.066,11.788,5.343,17.348c1.177,5.114,1.996,10.492,2.427,15.973c0.025,0.283,0.234,0.516,0.511,0.576
			c6.222,1.226,13.417,2.036,21.391,2.413c3.684,0.174,7.398,0.249,11.102,0.249c24.315,0,47.954-3.352,56.107-5.159
			c8.203-1.822,19.26-5.039,20.606-11.911C1307.668,326.929,1306.393,323.687,1303.313,320.172z"/>
		<path style="fill:#77A02C;" d="M1232.61,182.993c2.358-8.063,4.876-19.31-0.492-23.798c-2.264-1.897-5.71-2.354-10.269-1.341
			c-5.987,1.321-12.179,3.669-19.484,7.393c-10.386,5.298-20.728,12.453-32.561,22.527c-14.344,12.21-29.677,32.954-29.696,54.553
			c0,0.189,0.084,0.368,0.229,0.486l0.525,0.437c0.293,0.243,0.586,0.487,0.869,0.735c5.016,4.354,9.692,8.823,13.903,13.267
			c5.67,6.003,11.083,12.647,16.077,19.747c0.124,0.169,0.318,0.268,0.521,0.268c0.07,0,0.14-0.01,0.21-0.035
			c14.886-5.129,29.299-27.16,38.773-44.731C1221.636,213.152,1230.004,191.901,1232.61,182.993z"/>
	</g>
	<path style="fill:#E83C69;" d="M1156.726,256.722c-0.02-0.129-0.08-0.248-0.169-0.343c-4.24-4.474-8.947-8.967-13.996-13.357
		c-0.288-0.253-0.591-0.501-0.889-0.749l-0.517-0.432c-13.236-11.212-25.823-18.873-38.484-23.416
		c-27.115-9.712-59.697-6.256-87.169,9.235c-24.792,13.952-45.377,36.777-59.533,65.997c-3.119,6.415-5.944,13.163-8.675,19.687
		c-6.773,16.161-13.773,32.879-25.734,45.809c-9.305,10.025-21.282,17.358-32.86,24.458c-2.621,1.604-5.243,3.212-7.83,4.846
		c-5.447,3.422-9.379,6.261-12.76,9.216c-0.144,0.124-0.224,0.308-0.219,0.501c0.011,0.189,0.1,0.368,0.254,0.482
		c15.287,11.445,29.368,18.381,43.048,21.211c4.518,0.938,9.046,1.391,13.486,1.391c14.681,0,28.405-4.985,37.7-14.097
		c4.647-4.563,8.261-10.119,11.757-15.491c3.904-5.983,7.931-12.179,13.357-16.881c17.825-15.462,45.01-11.396,66.703-6.137
		l0.366,0.089c22.617,5.486,48.242,11.708,68.604-0.189c12.12-7.07,21.505-20.481,27.9-39.865
		C1158.444,306.1,1160.401,281.215,1156.726,256.722z"/>
	<path style="fill:#D32059;" d="M1198.653,343.553c-0.443-5.546-1.272-10.983-2.458-16.162c-1.292-5.616-3.053-11.341-5.392-17.507
		c-4.37-11.5-10.442-22.81-18.048-33.62c-5.035-7.145-10.482-13.838-16.197-19.885c-0.189-0.199-0.486-0.258-0.739-0.134
		c-0.248,0.119-0.393,0.392-0.353,0.665c3.65,24.3,1.708,48.981-5.611,71.379c-6.291,19.077-15.481,32.254-27.328,39.161
		c-19.915,11.653-45.282,5.486-67.661,0.059l-0.372-0.089c-21.981-5.333-49.569-9.429-67.834,6.405
		c-5.556,4.826-9.637,11.092-13.586,17.155c-3.46,5.313-7.039,10.809-11.589,15.278c-11.797,11.574-30.957,16.296-50.034,12.368
		c-13.496-2.79-27.408-9.657-42.542-20.983c-0.243-0.189-0.576-0.164-0.799,0.025c-4.975,4.339-8.496,8.783-10.76,13.595
		c-4.668,10.005-3.749,22.274,2.522,33.659c3.734,6.768,8.967,12.567,15.129,16.762c4.777,3.242,10.219,5.834,16.639,7.92
		c9.398,3.049,20.361,4.657,33.529,4.911c0,0,0.005,0,0.011,0c0.282,0,0.531-0.184,0.61-0.457
		c5.218-17.81,25.446-30.118,43.281-26.335c2.488,0.526,5.06,1.326,7.542,2.095c6.693,2.085,13.619,4.24,20.094,1.544
		c5.874-2.438,9.215-8.009,12.443-13.396c2.171-3.62,4.409-7.363,7.408-10.164c5.358-5,13.808-7.274,22.631-6.063
		c8.139,1.117,15.795,4.792,22.85,8.595l0.342,0.184c4.866,2.617,9.931,5.298,15.399,4.916c4.95-0.367,9.255-3.277,12.457-5.774
		c4.24-3.317,8.143-7.135,11.921-10.824c3.347-3.272,6.807-6.653,10.473-9.657c6.459-5.288,16.33-11.46,27.149-10.526
		c7.934,0.646,14.678,4.757,21.196,8.729c4.256,2.592,8.665,5.278,13.417,7.031c1.747,0.646,3.754,1.068,5.659,1.43
		c0.249,0.034,0.507-0.06,0.651-0.273c11.456-17.279,17.935-39.021,18.242-61.215
		C1198.995,350.216,1198.901,346.785,1198.653,343.553z"/>
	<path style="fill:#F29BBC;" d="M1074.413,232.456c-2.418-2.756-7.259-3.967-11.116-3.967c-0.115,0-0.229,0.005-0.338,0.005
		c-36.156,0.676-71.201,24.429-85.222,57.755c-2.865,6.808-4.94,14.007-6.951,20.973c-1.857,6.435-3.779,13.093-6.312,19.389
		c-7.536,18.753-20.987,35.198-37.874,46.315c-0.69,0.457-1.698,1.023-2.865,1.688c-4.568,2.587-10.829,6.137-11.226,9.811
		c-0.129,1.187,0.348,2.274,1.41,3.232c1.117,1.003,2.716,1.41,4.598,1.41c5.521,0,13.45-3.545,18.47-6.117
		c18.038-9.24,33.912-24.523,44.691-43.038c5.293-9.091,9.336-18.982,13.247-28.55c2.865-7.001,5.824-14.241,9.25-21.102
		c9.875-19.781,22.309-32.408,36.951-37.527c3.59-1.256,7.433-2.09,11.151-2.895c6.679-1.45,13.586-2.945,19.28-6.936
		c2.557-1.802,3.953-3.679,4.26-5.735C1076.082,235.411,1075.61,233.822,1074.413,232.456z"/>
	<g>
		<path style="fill:#435A23;" d="M1208.578,177.447c0.968-0.894,0.789-2.21,0.114-3.049c-0.761-0.949-1.942-1.157-2.88-0.492
			c-24.35,17.016-44.906,45.168-52.373,71.717c-0.397,1.405,0.517,2.562,1.619,2.979c0.317,0.119,0.636,0.179,0.938,0.179
			c0.849,0,1.594-0.462,1.991-1.286c1.107-2.289,2.19-4.572,3.272-6.847c4.985-10.516,9.692-20.447,16.384-29.88
			C1186.756,197.934,1197.923,187.273,1208.578,177.447z"/>
		<path style="fill:#435A23;" d="M1254.739,245.57c-0.224-0.7-0.972-1.311-1.831-1.118c-24.906,5.511-49.911,20.641-66.887,40.477
			c-0.611,0.715-0.442,1.584,0.044,2.076c0.273,0.273,0.666,0.452,1.084,0.452c0.332,0,0.684-0.114,1.007-0.382
			c20.099-16.713,40.396-28.991,65.813-39.805C1254.659,246.975,1254.968,246.29,1254.739,245.57z"/>
		<path style="fill:#435A23;" d="M1275.926,321.636c-25.019-5.884-44.429-7.095-59.339-3.684c-0.646,0.149-1.083,0.74-1.069,1.445
			c0.015,0.686,0.452,1.222,1.094,1.341c6.038,1.103,12.284,1.251,18.321,1.39c2.98,0.069,6.058,0.144,9.062,0.333
			c7.245,0.447,14.583,1.236,21.674,2.006c3.232,0.348,6.464,0.695,9.697,1.013c0.064,0.009,0.128,0.009,0.193,0.009
			c0.889,0,1.603-0.631,1.763-1.594C1277.474,322.972,1277.048,321.899,1275.926,321.636z"/>
	</g>
	<g>
		<path style="fill:#8E153C;" d="M1117.785,268.027c0-1.535-0.507-2.969-1.43-4.042c-1.053-1.226-2.542-1.872-4.31-1.872h-1.048
			c-3.768,0-5.734,2.979-5.734,5.924c0,2.939,1.966,5.913,5.734,5.913h1.048C1115.813,273.95,1117.785,270.971,1117.785,268.027z"/>
		<path style="fill:#8E153C;" d="M1067.512,300.494c0-1.534-0.507-2.969-1.43-4.042c-1.053-1.226-2.542-1.872-4.31-1.872
			c-3.768,0-5.735,2.979-5.735,5.923c0,2.939,1.967,5.913,5.735,5.913C1065.541,306.418,1067.512,303.439,1067.512,300.494z"/>
		<path style="fill:#8E153C;" d="M1117.278,320.941c-2.939,0-5.913,1.971-5.913,5.74v1.048c0,3.769,2.979,5.735,5.923,5.735
			c2.94,0,5.914-1.966,5.914-5.735v-1.048C1123.201,322.912,1120.222,320.941,1117.278,320.941z"/>
		<path style="fill:#8E153C;" d="M1016.732,323.036c-1.534,0-2.969,0.506-4.042,1.43c-1.225,1.053-1.872,2.542-1.872,4.31v1.048
			c0,3.769,2.98,5.735,5.925,5.735c2.939,0,5.912-1.966,5.912-5.735v-1.048C1022.656,325.007,1019.678,323.036,1016.732,323.036z"/>
		<path style="fill:#8E153C;" d="M1071.197,339.615c-3.77,0-5.735,2.979-5.735,5.923c0,2.939,1.965,5.914,5.735,5.914
			c1.767,0,3.257-0.646,4.309-1.872c0.923-1.078,1.43-2.513,1.43-4.052C1076.936,342.589,1074.965,339.615,1071.197,339.615z"/>
		<path style="fill:#8E153C;" d="M1155.674,366.199c-1.951-0.516-3.868,0.025-5.398,1.549l-1.042,1.048
			c-1.524,1.524-2.075,3.441-1.555,5.392c0.571,2.135,2.388,3.957,4.524,4.528c0.481,0.129,0.963,0.194,1.434,0.194
			c1.44,0,2.81-0.596,3.962-1.743l1.043-1.048c1.524-1.524,2.075-3.44,1.554-5.392
			C1159.627,368.592,1157.808,366.77,1155.674,366.199z"/>
		<path style="fill:#8E153C;" d="M1178.334,336.015c-1.052-1.226-2.542-1.872-4.309-1.872c-3.768,0-5.734,2.979-5.734,5.923
			c0,2.939,1.966,5.913,5.734,5.913c3.769,0,5.74-2.979,5.74-5.923C1179.765,338.523,1179.259,337.088,1178.334,336.015z"/>
		<path style="fill:#8E153C;" d="M1073.292,261.066c-3.769,0-5.735,2.979-5.735,5.923c0,2.939,1.966,5.914,5.735,5.914
			c1.768,0,3.257-0.646,4.31-1.872c0.923-1.078,1.429-2.513,1.429-4.052C1079.031,264.04,1077.06,261.066,1073.292,261.066z"/>
		<path style="fill:#8E153C;" d="M1050.655,387.063c-3.769,0-5.74,2.979-5.74,5.923c0,1.534,0.507,2.969,1.43,4.042
			c1.053,1.226,2.542,1.872,4.31,1.872c3.768,0,5.739-2.979,5.739-5.923C1056.395,390.036,1054.424,387.063,1050.655,387.063z"/>
		<path style="fill:#8E153C;" d="M1011.902,374.56c-3.768,0-5.735,2.979-5.735,5.923c0,2.94,1.967,5.914,5.735,5.914
			c1.768,0,3.257-0.646,4.31-1.872c0.923-1.078,1.43-2.512,1.43-4.052C1017.642,377.534,1015.671,374.56,1011.902,374.56z"/>
		<path style="fill:#8E153C;" d="M1006.903,407.479c-3.77,0-5.74,2.979-5.74,5.924c0,2.939,1.971,5.913,5.74,5.913
			c1.767,0,3.257-0.645,4.309-1.872c0.923-1.077,1.43-2.513,1.43-4.052C1012.641,410.453,1010.671,407.479,1006.903,407.479z"/>
	</g>
	<g>
		<path style="fill:#E4E0D9;" d="M1319.515,548.918c-1.857-19.007-7.134-38.818-16.599-62.348c-0.109-0.263-0.313-0.367-0.645-0.397
			c-0.278,0.024-0.507,0.228-0.566,0.501c-1.545,7.21-3.968,14.027-7.404,20.849c-15.685,31.261-49.146,50.928-81.409,47.885
			c-10.403-1.003-20.586-4.221-30.437-7.334c-5.546-1.758-11.281-3.57-17.021-4.975c-13.897-3.411-33.48-5.214-47.82,5.506
			c-9.662,7.199-14.777,18.44-19.727,29.314c-2.587,5.681-5.263,11.559-8.555,16.808c-18.52,29.483-62.329,39.647-91.921,21.301
			c-8.873-5.487-16.643-13.168-24.156-20.596c-11.544-11.41-23.485-23.212-39.413-26.802c-22.15-4.995-41.479,6.788-61.94,19.255
			c-10.473,6.38-21.305,12.974-32.473,17.036c-25.238,9.18-55.138,4.424-77.993-12.468c-0.164-0.119-0.377-0.159-0.571-0.094
			c-0.194,0.059-0.348,0.214-0.412,0.407c-0.909,2.76-1.598,5.392-2.12,8.039c-2.859,14.732,0.084,26.926,8.759,36.24
			c19.041,20.452,59.652,21.609,80.62,19.057c34.751-4.235,67.899,12.041,100.004,27.771c28.51,13.972,57.849,28.346,88.321,28.346
			c5.179,0,10.397-0.417,15.646-1.321c20.819-3.59,39.503-14.637,57.566-25.327c18.028-10.661,36.667-21.688,57.333-25.189
			c13.823-2.343,28.231-1.241,42.169-0.179c17.012,1.296,34.588,2.642,51.132-2.293c39.95-11.917,60.64-57.03,60.427-95.436
			C1320.285,558.436,1320.032,554.126,1319.515,548.918z"/>
		<path style="fill:#E4E0D9;" d="M843.543,558.242c0.029,0,0.064,0,0.094-0.005c0.308-0.049,0.541-0.313,0.541-0.626
			c0.174-27.696,26.241-48.455,51.34-52.522c22.378-3.62,47.507,2.199,76.89,17.8c2.791,1.48,5.562,3.009,8.333,4.534
			c9.443,5.208,19.205,10.591,29.636,13.977c15.551,5.045,30.303,4.504,41.524-1.514c15.402-8.262,22.458-25.034,29.281-41.256
			c3.704-8.813,7.532-17.925,12.671-25.66c3.823,1.713,7.517,3.982,11.097,6.176c2.667,1.639,5.427,3.332,8.238,4.796
			c4.141,2.16,18.436,8.59,28.48,0.641c4.876-3.853,6.986-9.856,9.022-15.66c1.772-5.054,3.606-10.283,7.254-14.012
			c0.929-0.948,2.036-1.823,3.461-2.731c1.366,0.268,2.721,0.551,4.066,0.854c1.004,0.228,2.017,0.462,3.035,0.695
			c9.453,2.195,19.24,4.479,28.5,1.579c6.047-1.882,11.807-6.018,17.11-12.294c17.685-20.938,19.601-50.188,4.557-69.548
			c-6.246-8.033-12.785-14.463-19.99-19.642c-0.194-0.139-0.443-0.154-0.661-0.05c-0.208,0.104-0.343,0.323-0.348,0.556
			c-0.303,21.807-6.619,43.157-17.8,60.178c-1.727-0.333-3.505-0.725-5.044-1.291c-4.633-1.713-8.988-4.364-13.193-6.926
			c-6.643-4.047-13.515-8.237-21.758-8.913c-11.177-0.904-21.424,5.378-28.053,10.814c-3.709,3.039-7.19,6.44-10.556,9.732
			c-3.753,3.664-7.631,7.458-11.817,10.73c-3.059,2.388-7.16,5.169-11.768,5.506c-0.338,0.024-0.675,0.039-1.018,0.039
			c-4.767,0-9.295-2.438-13.68-4.806l-0.342-0.184c-7.165-3.858-14.945-7.587-23.287-8.734c-9.175-1.251-18.033,1.137-23.664,6.391
			c-3.133,2.924-5.422,6.747-7.636,10.441c-3.267,5.452-6.35,10.601-11.837,12.88c-6.053,2.497-12.458,0.521-19.231-1.584
			c-2.512-0.779-5.109-1.584-7.651-2.125c-18.321-3.892-39.017,8.595-44.631,26.753c-12.82-0.283-23.516-1.867-32.672-4.841
			c-0.119-0.035-0.253-0.04-0.367-0.005c-12.105,3.327-22.944,9.533-31.346,17.949c-18.182,18.212-25.173,46.931-17.387,71.464
			C843.021,558.068,843.269,558.242,843.543,558.242z"/>
	</g>
	<path style="fill:#5E2F1E;" d="M1704.998,755.112c-2.85-3.57-5.849-7.185-8.913-10.744c-20.402-23.639-44.95-45.849-72.968-66.007
		c-0.199-0.149-0.472-0.164-0.68-0.04c-0.214,0.119-0.344,0.353-0.328,0.596c0.943,14.657-5.894,30.621-17.006,39.722
		c-7.885,6.45-17.115,8.68-25.967,6.306c-4.444-1.186-8.605-3.435-12.627-5.611c-3.56-1.921-7.234-3.912-11.146-5.203
		c-5.546-1.827-12.125-1.494-16.753,0.854c-3.153,1.609-5.337,4.077-6.32,7.14c-1.158,3.609-0.443,7.378,0.253,11.018
		c0.418,2.199,0.849,4.474,0.859,6.678c0.039,6.341-2.979,11.46-8.723,14.806c-10.521,6.127-28.397,5.402-40.685-1.668
		c-3.879-2.23-7.861-4.816-11.708-7.314c-14.687-9.543-29.885-19.424-46.172-14.732c-16.389,4.697-23.733,21.246-30.833,37.254
		c-6.538,14.737-13.301,29.98-27.06,36.474c-26.464,12.542-52.596-14.766-73.579-36.707l-0.298-0.308
		c-44.15-46.136-122.242-75.386-180.037-38.743c-15.819,10.04-28.679,24.181-41.117,37.855c-5.247,5.775-10.675,11.738-16.25,17.314
		c-23.674,23.674-46.877,34.811-69.185,32.954c-32.607-2.627-53.912-31.201-74.518-58.832
		c-20.571-27.592-41.846-56.122-74.547-59.637c-29.23-3.133-54.543,15.109-79.056,32.765c-2.647,1.902-5.268,3.794-7.88,5.641
		c-16.484,11.678-58.122,36.609-88.797,16.167c-12.586-8.406-19.795-22.492-26.767-36.112c-6.788-13.257-13.804-26.966-25.805-35.74
		c-28.925-21.167-68.305-4.359-102.957,13.053c-9.697,4.861-19.682,9.613-29.339,14.211c-29.543,14.061-60.089,28.599-86.747,48.406
		c-3.381,2.512-6.817,5.223-10.199,8.063c-0.094,0.079-0.164,0.184-0.199,0.298c-2.557,8.337-5.596,20.794-5.566,32.815
		c0.025,12.433,3.307,21.008,9.751,25.477c6.748,4.682,16.768,4.588,29.786-0.243c8.848-3.287,16.668-8.878,24.236-14.29
		l1.191-0.854c28.297-20.238,62.288-42.308,99.865-52.596l0.253-0.069c0.124-0.035,0.248-0.064,0.373-0.099
		c-0.274,5.67-0.348,11.435-0.418,17.025c-0.159,12.338-0.323,25.099-2.647,37.512c-5.397,28.857-16.807,53.152-32.983,70.258
		c-2.706,2.865-5.636,5.64-8.465,8.317c-5.711,5.402-11.613,10.988-16.023,17.661c-6.411,9.677-9.608,23.997-2.295,34.17
		c6.108,8.485,18.586,11.936,30.347,8.376c11.62-3.515,20.711-12.646,26.539-19.205c19.846-22.328,33.48-50.873,38.391-80.376
		c2.925-17.676,2.876-35.909,2.825-53.535c-0.049-14.225-0.109-30.317-3.187-45.432c0.987,0.079,1.871,0.188,2.68,0.333l2.22,0.462
		l2.131,0.68c0.774,0.273,1.4,0.546,1.977,0.854c0.71,0.358,1.3,0.695,1.876,1.063c0.655,0.417,1.232,0.834,1.763,1.271
		c0.546,0.447,1.088,0.943,1.639,1.495l0.803,0.849c1.296,1.445,2.503,3.197,3.581,5.188l0.605,1.181
		c0.69,1.41,1.261,2.761,1.753,4.146c0.198,0.487,0.367,0.973,0.526,1.509c0.447,1.326,0.76,2.383,1.022,3.436
		c0.303,1.107,0.576,2.24,0.835,3.421c0.277,1.256,0.551,2.567,0.778,3.927c5.348,30.705,24.682,43.614,39.955,49.041
		c30.025,10.655,72.467,1.475,98.714-21.36c3.848-3.352,7.576-7.001,11.176-10.526c7.9-7.731,16.072-15.725,25.903-20.988
		c10.56-5.616,22.551-7.949,35.66-6.896c0.566,0.024,1.128,0.069,1.688,0.144l1.014,0.104c0.669,0.07,1.34,0.169,2.079,0.278
		l0.318,0.045c0.948,0.139,1.901,0.273,2.894,0.457c0.552,0.09,1.122,0.194,1.683,0.313c0.278,0.506,0.531,0.948,0.715,1.276
		c7.363,14.384,12.383,30.297,14.921,47.303c5.055,33.689-0.675,68.013-16.132,96.652c-2.81,5.229-5.993,10.407-9.072,15.412
		l-1.098,1.788c-6.936,11.286-12.945,21.564-16.231,33.093c-2.711,9.488-2.358,17.264,1.048,23.108
		c6.256,10.74,21.723,12.269,32.229,6.971c11.073-5.531,18.009-16.415,23.332-26.335c1.659-3.089,3.272-6.326,4.936-9.896
		c24.88-53.242,26.494-117.68,4.4-172.759c0.914,0.531,1.866,1.102,2.874,1.733c16.995,10.551,30.809,26.043,44.165,41.022
		c13.937,15.631,28.346,31.792,46.553,42.691c5.626,3.371,11.236,6.35,16.658,9.231c5.849,3.103,11.37,6.033,16.479,9.225
		c16.911,10.506,28.043,22.87,27.393,49.071c-0.824,32.512-4.811,66.628-11.852,101.394c-3.813,18.838-8.6,38.262-14.23,57.731
		c-5.338,18.47-11.52,37.412-18.382,56.3c-5.243,14.454-10.779,29.176-16.132,43.416l-1.628,4.334
		c-3.525,9.389-7.667,20.466-11.688,31.414c-8.187,22.284-14.588,40.784-20.139,58.222c-11.246,35.322-18.848,66.727-23.247,95.997
		c-2.816,18.793-4.35,37.318-4.549,55.064l-0.035,2.488c-0.044,3.182-0.093,6.47-0.019,9.727
		c0.81,35.719,8.615,61.891,23.862,80.019l0.477,0.585c0.307,0.383,0.62,0.76,0.953,1.133
		c10.988,12.303,28.122,20.307,44.712,20.893c0.65,0.02,1.3,0.03,1.94,0.03c12.398,0,23.545-4.23,31.56-12.016
		c3.932-3.823,7.016-8.222,9.423-13.45c6.4-13.877,6.43-32.125,0.095-55.784c-2.88-10.759-6.669-21.38-9.648-29.433
		c-6.33-17.066-11.623-33.813-15.735-49.776c-9.354-36.331-13.083-70.844-11.091-102.581c0.262-4.24,0.581-8.073,0.973-11.728
		c1.509-13.957,4.264-28.54,8.431-44.578c2.849-11.003,6.336-22.621,10.656-35.516c4.27-12.745,8.952-25.63,13.475-38.088
		c4.378-12.051,8.906-24.514,13.053-36.832c4.032-11.986,7.945-24.607,11.961-38.584c6.376-22.195,11.37-42.984,15.283-63.56
		c6.172-32.527,9.672-64.095,10.7-96.523c0.67-20.646,4.364-41.504,10.68-60.327c8.421-9.468,15.595-20.799,22.537-31.762
		c13.023-20.566,26.494-41.836,48.401-50.625c0.675-0.273,1.35-0.521,2.055-0.769c24.523-8.759,55.267,0.481,82.204,24.697
		c10.109,9.081,19.3,19.464,28.188,29.498c10.913,12.329,22.194,25.069,35.268,35.521c21.36,17.041,56.434,31.167,84.949,14.891
		c12.581-7.175,22.617-19.523,32.318-31.464c14.901-18.337,28.983-35.65,50.492-32.74c6.985,0.953,13.912,4.156,22.457,10.377
		c32.493,23.709,54.671,64.681,60.858,112.417c0.313,2.433,0.546,4.891,0.706,7.512c0.06,1.018,0.104,2.036,0.148,3.034l0.03,0.729
		c0.566,17.959-2.766,36.087-5.983,53.619c-1.807,9.866-3.684,20.064-4.841,30.124c-0.06,0.486-0.109,0.983-0.159,1.48l-0.119,1.157
		c-0.089,0.769-0.159,1.534-0.229,2.303l-0.035,0.383c-0.193,2.185-0.377,4.518-0.327,6.827c0.029,3.292,0.525,6.088,1.514,8.55
		c1.187,2.955,2.894,5.467,5.079,7.458c11.311,10.481,34.279,6.395,52.001-0.943c5.352-2.22,10.263-4.732,13.833-7.08
		c27.627-18.247,41.226-52.66,33.838-85.639c-0.227-0.913-0.456-1.852-0.69-2.81l-0.536-1.926c-0.715-2.483-1.653-5.144-2.87-8.148
		c-0.67-1.648-1.39-3.407-2.239-5.169l-31.117-64.006c-7.919-16.301-16.897-34.776-17.557-54.116
		c-0.621-17.318,7.349-39.145,26.311-46.141c24.067-8.903,37.602,12.343,50.719,32.865c9.067,14.185,17.632,27.581,29.051,29.135
		c6.177,0.834,12.661-1.852,19.766-8.237c12.458-11.191,20.84-23.068,24.906-35.292
		C1730.231,791.492,1718.015,771.477,1704.998,755.112z"/>
	<g>
		<path style="fill:#E4772A;" d="M415.195,1427.75c45.045,6.713,91.569-2.83,136.563-12.075c55-11.291,111.88-22.964,164.477-3.754
			c33.764,12.334,62.044,36.365,89.393,59.602c28.316,24.061,57.597,48.937,93.003,60.883c4.399,1.485,9.176,2.795,15.039,4.121
			c0.045,0.01,0.095,0.014,0.139,0.014c0.219,0,0.427-0.114,0.542-0.303c0.144-0.233,0.119-0.531-0.055-0.739
			c-15.055-17.9-22.76-43.818-23.565-79.235c-0.074-3.233-0.026-6.51,0.019-9.677l0.035-2.487c0-0.164-0.06-0.318-0.169-0.437
			c-4.503-4.921-8.967-10.124-13.281-15.154c-9.384-10.929-19.087-22.234-30.02-31.644c-64.13-55.193-162.385-40.704-230.717-25.015
			c-4.711,1.087-9.449,2.19-14.205,3.292c-75.143,17.488-152.844,35.571-221.174,4.236c-10.417-4.776-20.844-10.814-30.933-16.648
			c-17.741-10.263-36.088-20.874-55.059-25.064c-0.288-0.059-0.536,0.055-0.676,0.283c-2.04,3.247-4.131,6.693-6.4,10.541
			c-0.13,0.219-0.119,0.491,0.03,0.695C318.981,1391.669,365.276,1420.303,415.195,1427.75z"/>
		<path style="fill:#E4772A;" d="M1826.312,1295.815c-0.14-0.035-0.344,0.03-0.476,0.144
			c-14.971,12.492-27.344,18.823-40.124,20.526c-15.77,2.12-32.036,1.693-47.766,1.286c-17.974-0.467-36.533-0.948-54.488,2.343
			c-40.783,7.498-75.569,33.59-109.209,58.823c-37.617,28.212-76.509,57.383-123.018,59.11
			c-33.231,1.301-64.935-12.046-95.55-24.906c-14.066-5.908-28.614-12.016-43.197-16.678
			c-63.26-20.218-133.409-14.379-192.454,16.043c-14.847,7.651-29.107,16.896-42.9,25.834
			c-14.713,9.533-29.925,19.395-45.849,27.314c-9.821,4.881-19.776,8.784-29.587,11.604c-0.332,0.094-0.531,0.442-0.442,0.775
			c6.261,23.362,6.251,41.325-0.015,54.92c-0.105,0.224-0.07,0.486,0.085,0.676c0.124,0.144,0.303,0.229,0.492,0.229
			c0.049,0,0.103-0.005,0.154-0.02c24.935-6.172,51.305-16.619,78.385-31.043c8.565-4.557,17.214-9.449,25.58-14.175
			c31.44-17.77,63.952-36.146,99.815-41.593c46.191-7.061,93.327,7.85,138.922,22.254c53.514,16.902,108.861,34.369,160.957,14.762
			c26.459-9.96,48.619-28.604,70.043-46.633c19.831-16.683,40.332-33.937,64.21-44.294c26.43-11.465,55.938-14.062,84.472-16.574
			c5.12-0.452,10.234-0.904,15.328-1.405c37.944-3.749,76.479-10.77,101.325-36.504c2.527-2.636,4.623-5.149,6.4-7.681
			c0.129-0.184,0.149-0.422,0.06-0.626c-4.941-11.156-11.911-22.686-20.714-34.26
			C1826.644,1295.925,1826.485,1295.835,1826.312,1295.815z"/>
		<path style="fill:#E4772A;" d="M1826.977,1052.397c-0.144-0.034-0.343,0.03-0.476,0.144
			c-14.971,12.493-27.343,18.823-40.124,20.526c-15.774,2.115-32.036,1.688-47.766,1.286c-17.973-0.471-36.539-0.948-54.488,2.343
			c-40.784,7.503-75.57,33.595-109.209,58.823c-37.616,28.212-76.508,57.388-123.018,59.115c-1.454,0.055-2.909,0.08-4.363,0.08
			c-31.683,0-61.906-12.691-91.181-24.985c-14.072-5.908-28.621-12.021-43.203-16.683c-63.266-20.214-133.409-14.379-192.456,16.042
			c-14.845,7.651-29.106,16.896-42.899,25.834c-14.712,9.534-29.92,19.394-45.848,27.313c-19.4,9.638-39.175,15.368-57.194,16.579
			c-0.272,0.02-0.501,0.209-0.571,0.477c-4.18,16.097-6.946,30.739-8.46,44.756c-0.398,3.674-0.72,7.532-0.983,11.788
			c-0.01,0.184,0.06,0.363,0.189,0.491c0.119,0.119,0.283,0.184,0.447,0.184h0.049c35.591-2.741,74.479-15.233,115.59-37.13
			c8.565-4.558,17.209-9.449,25.571-14.176c31.444-17.77,63.961-36.146,99.83-41.598c46.186-7.075,93.32,7.85,138.916,22.254
			c53.514,16.896,108.841,34.373,160.957,14.761c26.459-9.96,48.619-28.604,70.053-46.638c19.826-16.678,40.328-33.927,64.205-44.29
			c26.43-11.464,55.938-14.061,84.472-16.574c5.119-0.451,10.234-0.903,15.327-1.405c37.944-3.749,76.484-10.769,101.319-36.504
			c2.528-2.631,4.623-5.144,6.405-7.681c0.13-0.184,0.15-0.422,0.06-0.626c-4.956-11.171-11.921-22.701-20.714-34.26
			C1827.309,1052.506,1827.15,1052.417,1826.977,1052.397z"/>
		<path style="fill:#E4772A;" d="M415.861,1184.337c45.054,6.718,91.569-2.84,136.558-12.075
			c54.995-11.306,111.875-22.969,164.481-3.759c33.764,12.333,62.04,36.365,89.394,59.602
			c28.315,24.061,57.595,48.942,93.002,60.883c5.542,1.872,11.59,3.456,18.496,4.846c0.039,0.01,0.084,0.015,0.124,0.015
			c0.273,0,0.521-0.174,0.605-0.442c5.546-17.423,11.936-35.908,20.119-58.172c0.059-0.159,0.05-0.337-0.019-0.491
			c-0.075-0.154-0.21-0.273-0.368-0.328c-2.056-0.705-3.858-1.39-5.511-2.1c-20.636-8.803-35.66-25.02-51.777-43.748
			c-0.075-0.084-0.175-0.149-0.283-0.189c-47.025-15.531-93.331-41.191-138.106-66.007c-4.862-2.697-9.728-5.392-14.598-8.079
			c-0.094-0.049-0.198-0.079-0.303-0.079c-0.844-0.005-1.693-0.01-2.542-0.01c-30.894,0-66.216,4.662-107.868,14.23
			c-4.718,1.088-9.46,2.19-14.221,3.297c-75.142,17.482-152.853,35.56-221.158,4.23c-10.413-4.776-20.84-10.809-30.924-16.643
			c-17.745-10.263-36.092-20.879-55.069-25.064c-0.293-0.059-0.536,0.055-0.675,0.283c-2.026,3.223-4.121,6.669-6.401,10.536
			c-0.128,0.219-0.119,0.492,0.029,0.696C319.636,1148.245,365.931,1176.884,415.861,1184.337z"/>
		<path style="fill:#E4772A;" d="M420.221,989.826c45.064,6.723,91.578-2.84,136.563-12.075
			c54.999-11.291,111.88-22.969,164.476-3.759c33.758,12.338,62.035,36.365,89.384,59.602
			c28.321,24.061,57.601,48.937,93.013,60.883c16.027,5.412,33.247,8.123,51.454,8.123c10.005,0,20.312-0.819,30.878-2.463
			c0.243-0.035,0.443-0.214,0.511-0.447c5.636-19.503,10.432-38.962,14.25-57.839c0.045-0.208-0.025-0.432-0.179-0.581
			c-0.154-0.149-0.373-0.204-0.591-0.164c-23.495,5.591-44.662,4.479-62.879-3.302c-22.502-9.598-38.933-28.754-54.826-47.274
			c-9.26-10.794-18.833-21.956-29.598-31.286c-0.159-0.129-0.362-0.184-0.551-0.139c-0.193,0.04-0.358,0.174-0.442,0.353
			c-1.654,3.545-3.257,6.763-4.905,9.831c-5.229,9.747-12.027,20.427-22.781,25.804c-9.999,5.02-24.666,3.634-30.555-6.475
			c-3.228-5.536-3.54-12.979-0.927-22.125c3.246-11.375,9.21-21.574,16.091-32.775c0.099-0.159,0.12-0.358,0.06-0.536
			c-0.06-0.179-0.194-0.323-0.373-0.388c-60.774-23.465-135.648-10.581-186.671,1.132c-4.713,1.088-9.449,2.19-14.2,3.292
			c-75.158,17.482-152.868,35.571-221.185,4.231c-10.417-4.777-20.844-10.81-30.932-16.649
			c-17.741-10.258-36.088-20.869-55.055-25.059c-0.293-0.054-0.535,0.054-0.674,0.283c-2.04,3.247-4.131,6.693-6.401,10.541
			c-0.129,0.219-0.119,0.492,0.03,0.695C324.001,953.739,370.291,982.373,420.221,989.826z"/>
		<path style="fill:#E4772A;" d="M1831.773,858.139c-0.103-0.139-0.262-0.229-0.437-0.248c-0.144-0.04-0.342,0.024-0.477,0.144
			c-14.97,12.493-27.348,18.823-40.128,20.521c-15.774,2.12-32.031,1.693-47.776,1.291c-17.958-0.477-36.533-0.948-54.478,2.344
			c-33.109,6.087-61.474,24.046-87.199,42.547c-0.249,0.179-0.332,0.516-0.198,0.795l17.844,36.697
			c0.83,1.728,1.539,3.466,2.2,5.094c0.075,0.174,0.219,0.308,0.398,0.367c0.064,0.02,0.128,0.03,0.193,0.03
			c0.119,0,0.239-0.035,0.344-0.1c8.097-5.214,15.565-9.28,22.839-12.433c26.439-11.47,55.948-14.066,84.483-16.583
			c5.119-0.447,10.232-0.899,15.323-1.4c37.938-3.744,76.473-10.759,101.319-36.499c2.513-2.622,4.607-5.139,6.405-7.687
			c0.129-0.184,0.148-0.421,0.059-0.625C1847.547,881.247,1840.577,869.723,1831.773,858.139z"/>
		<path style="fill:#E4772A;" d="M1023.948,1091.051c0.064,0,0.129-0.01,0.193-0.029c19.881-6.301,40.481-15.099,61.231-26.152
			c8.555-4.553,17.195-9.439,25.551-14.16c31.449-17.78,63.971-36.162,99.85-41.609c46.176-7.066,93.331,7.85,138.926,22.249
			c53.514,16.906,108.841,34.379,160.946,14.767c3.609-1.356,7.393-3.024,11.916-5.248c0.19-0.094,0.324-0.278,0.349-0.492
			c1.127-8.808,2.741-17.745,4.304-26.39c2.304-12.77,4.693-25.973,5.552-39.046c0.015-0.234-0.104-0.462-0.309-0.586
			c-0.198-0.119-0.451-0.124-0.659,0.005c-27.313,16.678-51.316,24.865-75.54,25.764c-33.282,1.261-64.935-12.05-95.551-24.905
			c-14.066-5.909-28.614-12.016-43.197-16.678c-63.262-20.219-133.415-14.379-192.456,16.042
			c-14.846,7.652-29.11,16.882-42.904,25.804c-13.903,8.992-28.277,18.297-43.222,25.958c-0.179,0.089-0.298,0.253-0.338,0.447
			c-3.902,20.536-8.892,41.29-15.253,63.45c-0.064,0.224,0,0.467,0.169,0.631
			C1023.624,1090.987,1023.784,1091.051,1023.948,1091.051z"/>
		<path style="fill:#E4772A;" d="M1822.618,1492.581c-16.068,10.765-33.182,17.061-53.873,19.802
			c-14.771,1.956-29.99,2.671-44.701,3.361c-24.012,1.127-48.837,2.294-72.343,8.882c-53.112,14.876-94.016,55.243-133.573,94.284
			c-39.895,39.374-81.147,80.088-134.79,94.329c-58.902,15.651-119.284-3.773-177.68-22.571
			c-24.637-7.93-50.114-16.128-75.232-21.634c-49.166-10.775-101.295-11.579-150.728-2.339c-15.487,2.89-31.166,6.813-46.331,10.607
			c-36.975,9.25-75.222,18.813-113.24,13.986c-49.955-6.345-92.565-36.355-133.772-65.382
			c-36.395-25.64-74.03-52.149-117.079-62.944c-29.751-7.463-61.266-7.134-91.761-6.817c-35.849,0.367-72.864,0.755-106.712-11.648
			c-18.749-6.876-36.549-17.681-53.768-28.128c-8.53-5.179-17.352-10.531-26.127-15.298c-0.268-0.159-0.61-0.079-0.799,0.159
			c-7.657,9.504-14.683,19.692-20.879,30.283c-2.328,4.007-4.266,7.632-5.929,11.068c-0.134,0.273-0.054,0.596,0.184,0.779
			c6.658,5.149,13.157,10.775,19.444,16.217c11.489,9.945,23.371,20.232,36.723,28.008c40.337,23.53,88.807,22.304,135.698,21.127
			c15.368-0.382,31.256-0.794,46.574-0.298c62.129,2.006,123.266,19.811,176.806,51.494c9.299,5.506,18.555,11.539,27.506,17.373
			c21.499,14.012,43.729,28.5,68.371,36.847c54.97,18.624,113.27,4.9,169.64-8.372c35.492-8.357,72.195-16.996,108.281-17.815
			c53.807-1.252,106.717,15.014,157.837,30.724c13.277,4.077,27.001,8.292,40.511,12.13c31.311,8.897,71.187,18.242,112.139,18.242
			c29.623,0,59.806-4.891,87.711-18.382c37.412-18.093,66.801-49.727,95.227-80.317c32.651-35.133,66.41-71.463,111.95-86.18
			c21.782-7.036,45.133-8.62,67.715-10.149c17.319-1.172,35.233-2.389,52.428-6.043c29.518-6.261,45.72-20.854,57.675-34.304
			c0.165-0.189,0.204-0.452,0.105-0.68c-3.053-6.882-7.21-13.699-12.354-20.268
			C1823.263,1492.452,1822.89,1492.387,1822.618,1492.581z"/>
	</g>
	<g>
		<path style="fill:#FEDA97;" d="M1846.941,1329.951c-0.233-0.059-0.451,0.08-0.58,0.263c-1.739,2.482-3.789,4.946-6.271,7.532
			c-24.563,25.437-62.834,32.398-100.535,36.127c-5.089,0.496-10.199,0.948-15.317,1.4c-28.634,2.523-58.242,5.129-84.866,16.678
			c-24.046,10.427-44.621,27.74-64.516,44.483c-21.351,17.959-43.421,36.534-69.677,46.415
			c-51.693,19.478-104.358,2.83-160.128-14.781c-45.729-14.444-93.002-29.379-139.492-22.304
			c-36.097,5.487-68.708,23.917-100.252,41.747c-8.356,4.722-17.001,9.608-25.551,14.161
			c-26.986,14.373-53.262,24.781-78.097,30.932c-0.19,0.045-0.343,0.174-0.423,0.348c-2.344,5.084-5.337,9.364-9.155,13.073
			c-7.875,7.651-18.411,11.664-30.581,11.664c-0.661,0-1.321-0.015-1.992-0.035c-16.255-0.576-33.043-8.417-43.812-20.467
			c-0.318-0.357-0.612-0.725-0.909-1.092l-0.492-0.595c-0.089-0.11-0.208-0.185-0.348-0.214c-5.814-1.316-10.556-2.612-14.91-4.081
			c-35.179-11.872-64.364-36.668-92.586-60.65c-27.438-23.312-55.804-47.413-89.781-59.825
			c-52.943-19.34-109.994-7.627-165.166,3.704c-44.886,9.215-91.291,18.758-136.121,12.055
			c-49.583-7.393-95.57-35.844-126.17-78.047c-0.13-0.169-0.303-0.219-0.546-0.263c-0.214,0.01-0.408,0.129-0.516,0.313
			c-13.729,23.307-20.908,41.693-22.597,57.859c-2.453,23.455,6.683,42.184,27.924,57.249c6.535,4.632,13.714,8.47,21.962,11.738
			c38.595,15.288,87.124,11.087,134.045,7.031c28.421-2.458,55.257-4.781,78.341-2.602c74.607,7.065,143.405,45.208,209.938,82.094
			c72.109,39.98,146.468,81.211,227.197,81.205c6.703,0,13.46-0.282,20.253-0.874c49.006-4.284,95.246-24.682,139.957-44.404
			c45.323-19.995,92.189-40.665,141.826-44.453c35.13-2.692,71.539,3.103,106.727,8.704c52.845,8.396,107.497,17.095,156.875-3.833
			c20.104-8.515,38.143-21.623,55.59-34.299c18.49-13.431,37.607-27.323,59.116-35.66c23.678-9.176,50.788-12.115,77.004-14.95
			c22.612-2.448,45.993-4.98,66.271-11.579c20.868-6.793,36.479-17.283,47.725-32.085c6.296-8.282,11.236-16.936,14.682-25.71
			c9.081-23.167,7.894-47.929-3.525-73.599C1847.369,1330.115,1847.17,1329.971,1846.941,1329.951z"/>
		<path style="fill:#FEDA97;" d="M1847.607,1086.533c-0.229-0.045-0.452,0.079-0.581,0.263c-1.743,2.487-3.798,4.951-6.277,7.532
			c-24.552,25.437-62.829,32.398-100.534,36.127c-5.084,0.496-10.194,0.948-15.313,1.401c-28.634,2.522-58.242,5.129-84.865,16.678
			c-24.047,10.432-44.621,27.741-64.517,44.478c-21.35,17.964-43.426,36.539-69.681,46.419
			c-51.708,19.483-104.369,2.825-160.128-14.781c-45.729-14.444-93.003-29.374-139.486-22.303
			c-36.103,5.491-68.724,23.927-100.262,41.757c-8.356,4.722-17.002,9.602-25.546,14.156
			c-40.958,21.812-79.676,34.255-115.093,36.98c-0.313,0.025-0.566,0.278-0.585,0.596c-2.001,31.866,1.748,66.514,11.132,102.978
			c0.074,0.283,0.328,0.476,0.616,0.476h0.03l2.283-0.104c2.309-0.099,4.703-0.203,7.081-0.407
			c49.006-4.29,95.242-24.682,139.953-44.409c45.327-19.995,92.194-40.665,141.831-44.453c35.138-2.691,71.538,3.104,106.727,8.704
			c52.844,8.401,107.491,17.09,156.875-3.833c20.103-8.515,38.142-21.624,55.59-34.3c18.485-13.431,37.606-27.318,59.115-35.66
			c23.699-9.181,50.823-12.115,77.06-14.95c9.752-1.053,19.84-2.145,29.503-3.535c31.47-4.543,63.481-12.552,84.438-40.124
			c23.157-30.481,26.911-63.897,11.157-99.314C1848.034,1086.697,1847.835,1086.553,1847.607,1086.533z"/>
		<path style="fill:#FEDA97;" d="M294.145,1220.181c18.053,12.8,41.563,19.975,71.881,21.946c27.075,1.758,56.062-0.75,84.091-3.173
			c28.43-2.463,55.292-4.781,78.376-2.606c74.617,7.065,143.424,45.203,209.962,82.079c50.401,27.935,102.516,56.817,156.076,71.3
			c0.054,0.015,0.109,0.02,0.164,0.02c0.124,0,0.243-0.035,0.348-0.104c0.154-0.099,0.253-0.258,0.282-0.437
			c4.384-29.205,11.971-60.54,23.198-95.798c0.054-0.174,0.035-0.362-0.06-0.516c-0.089-0.154-0.242-0.263-0.421-0.298
			c-6.852-1.38-12.851-2.954-18.337-4.806c-35.179-11.866-64.364-36.668-92.591-60.65c-27.433-23.311-55.804-47.412-89.776-59.825
			c-52.939-19.349-109.994-7.626-165.177,3.704c-44.885,9.221-91.309,18.744-136.111,12.06
			c-49.592-7.398-95.585-35.849-126.17-78.052c-0.129-0.174-0.327-0.194-0.546-0.263c-0.214,0.01-0.407,0.129-0.517,0.313
			C265.942,1143.901,248.688,1187.937,294.145,1220.181z"/>
		<path style="fill:#FEDA97;" d="M984.966,1204.277c0.119,0.159,0.303,0.248,0.501,0.248h0.039c0.656-0.045,1.306-0.074,1.957-0.099
			c0.924-0.04,1.842-0.079,2.77-0.159c49.011-4.285,95.253-24.682,139.964-44.409c45.323-19.99,92.189-40.66,141.826-44.449
			c35.139-2.686,71.548,3.104,106.731,8.699c52.845,8.406,107.487,17.1,156.871-3.828c20.098-8.52,38.137-21.623,55.585-34.3
			c18.49-13.431,37.611-27.323,59.12-35.665c23.679-9.176,50.785-12.11,77.001-14.946c25.703-2.78,49.984-5.407,71.528-13.406
			c18.252-6.773,32.145-16.668,42.473-30.257c23.157-30.477,26.91-63.892,11.156-99.314c-0.094-0.209-0.292-0.353-0.521-0.373
			c-0.229-0.06-0.451,0.08-0.581,0.263c-1.757,2.497-3.808,4.965-6.275,7.537c-24.558,25.442-62.835,32.398-100.536,36.122h0.005
			c-5.09,0.497-10.195,0.948-15.309,1.395c-28.638,2.522-58.251,5.134-84.879,16.688c-7.334,3.178-14.866,7.274-23.019,12.522
			c-0.258,0.169-0.363,0.491-0.248,0.774c1.207,2.964,2.13,5.586,2.831,8.019l0.531,1.902c0.228,0.943,0.457,1.882,0.681,2.78
			c6.842,30.119-3.63,61.44-26.684,79.806c-6.027,4.801-12.83,8.654-20.238,11.45c-17.353,7.184-39.771,11.271-50.65,1.181
			c-0.039-0.035-0.084-0.064-0.129-0.094c-1.207-0.651-2.264-1.5-3.138-2.507c-2.83-3.376-3.063-8.193-2.92-12.492
			c-0.05-2.255,0.134-4.543,0.323-6.698l0.035-0.378c0.07-0.759,0.134-1.514,0.224-2.274l0.124-1.172
			c0.049-0.492,0.094-0.978,0.154-1.47c0.113-1.103,0.268-2.21,0.417-3.312l0.224-1.688c0.029-0.233-0.07-0.462-0.264-0.596
			c-0.189-0.144-0.442-0.164-0.651-0.055c-4.478,2.21-8.227,3.858-11.797,5.199c-51.683,19.459-104.364,2.825-160.119-14.786
			c-45.743-14.449-93.047-29.379-139.496-22.298c-36.112,5.486-68.738,23.927-100.286,41.762
			c-8.347,4.717-16.981,9.598-25.521,14.146c-20.68,11.013-41.212,19.781-61.022,26.062c-0.204,0.065-0.358,0.224-0.418,0.432
			c-4.012,13.957-7.92,26.559-11.941,38.525c-4.146,12.304-8.669,24.762-13.044,36.807c-4.534,12.463-9.215,25.357-13.486,38.113
			C984.797,1203.89,984.837,1204.109,984.966,1204.277z"/>
		<path style="fill:#FEDA97;" d="M298.504,1025.669c9.592,6.802,20.502,11.917,33.346,15.636
			c36.608,10.581,80.347,6.802,122.65,3.138c28.42-2.463,55.262-4.776,78.345-2.607c68.142,6.455,130.893,38.485,194.516,73.569
			c4.871,2.686,9.738,5.382,14.598,8.078c44.831,24.841,91.186,50.531,138.326,66.107c24.304,8.023,47.004,12.82,69.398,14.652h0.05
			c0.263,0,0.501-0.164,0.595-0.412l1.628-4.334c5.352-14.24,10.888-28.972,16.132-43.426c6.872-18.917,13.069-37.884,18.411-56.38
			c0.06-0.208,0.009-0.437-0.134-0.601c-0.138-0.159-0.352-0.224-0.576-0.204c-29.588,4.588-57.09,2.701-81.727-5.611
			c-35.178-11.867-64.368-36.668-92.596-60.65c-27.432-23.311-55.804-47.412-89.771-59.825
			c-52.943-19.34-109.998-7.622-165.166,3.704c-44.885,9.22-91.3,18.768-136.121,12.06c-49.592-7.398-95.58-35.848-126.171-78.047
			c-0.129-0.174-0.307-0.293-0.546-0.263c-0.214,0.01-0.407,0.129-0.517,0.313C270.302,949.395,253.049,993.431,298.504,1025.669z"
			/>
		<path style="fill:#FEDA97;" d="M1835.343,1512.615c-0.218-0.03-0.427,0.039-0.576,0.204
			c-11.818,13.292-27.825,27.72-56.991,33.907c-17.105,3.635-34.969,4.846-52.249,6.018c-22.656,1.534-46.081,3.118-68.013,10.204
			c-45.858,14.821-79.736,51.275-112.491,86.528c-28.346,30.506-57.655,62.05-94.855,80.039
			c-66.076,31.951-145.192,15.332-198.945,0.059c-13.495-3.833-27.213-8.048-40.48-12.125
			c-51.221-15.734-104.13-32.059-158.245-30.779c-36.222,0.819-72.984,9.478-108.54,17.85
			c-58.798,13.838-114.324,26.911-168.946,8.406c-24.493-8.297-46.652-22.74-68.082-36.707
			c-8.962-5.845-18.232-11.887-27.557-17.403c-53.718-31.793-115.069-49.657-177.412-51.673
			c-15.341-0.501-31.261-0.089-46.642,0.298c-46.717,1.172-94.999,2.393-135.034-20.958c-13.242-7.711-25.078-17.958-36.524-27.87
			c-6.301-5.451-12.815-11.092-19.504-16.256c-0.148-0.119-0.362-0.159-0.531-0.119c-0.189,0.044-0.342,0.168-0.427,0.342
			c-10.005,20.535-12.959,39.016-8.769,54.94c10.64,40.203,61.554,53.018,82.949,56.657c23.561,4.022,47.845,5.581,71.33,7.091
			c27.065,1.738,55.053,3.535,82,9.11c51.057,10.566,99.313,34.766,145.981,58.173c60.232,30.208,122.512,61.439,190.32,62.576
			c1.237,0.019,2.468,0.03,3.71,0.03c30.948,0,61.857-6.152,91.777-12.115c9.835-1.956,20.005-3.982,30.009-5.754
			c94.006-16.693,192.853-14.161,285.846,7.299c8.426,1.941,17.006,4.076,25.307,6.142c30.919,7.695,62.756,15.625,94.796,15.625
			c4.548,0,9.101-0.159,13.658-0.501c64.171-4.836,117.865-44.324,169.785-82.507c44.464-32.701,90.436-66.508,143.42-79.428
			c13.069-3.178,26.653-5.085,39.786-6.931c14.906-2.091,30.318-4.256,45.089-8.292c32.968-9.007,57.119-27.651,66.25-51.151
			c8.109-20.869,7.866-41.246-0.719-60.56C1835.735,1512.784,1835.557,1512.645,1835.343,1512.615z"/>
	</g>
</g>
</svg>
