<?xml version="1.0" encoding="iso-8859-1"?>
<!-- Uploaded to: SVG Repo, www.svgrepo.com, Generator: SVG Repo Mixer Tools -->
<svg version="1.1" id="Layer_1" xmlns="http://www.w3.org/2000/svg" xmlns:xlink="http://www.w3.org/1999/xlink" 
	 viewBox="0 0 164 164" xml:space="preserve">
<g>
	<g>
		<g>
			<path style="fill:#76A930;" d="M107.543,135.942c0,0,21.426-8.582,32.524,11.075
				C140.067,147.018,119.199,155.469,107.543,135.942z"/>
		</g>
		<g>
			<path style="fill:#76A930;" d="M117.117,149.823c0,0,15.636-16.977,1.205-34.335
				C118.322,115.488,103.006,131.989,117.117,149.823z"/>
		</g>
		<g>
			<path style="fill:#76A930;" d="M111.946,143.072c0,0,5.591-19.66,25.374-16.786C137.32,126.286,131.936,145.485,111.946,143.072z
				"/>
		</g>
		<g>
			<path style="fill:#FF9BB8;" d="M86.345,160.969c-2.52-3.654,5.388-30.451,11.183-34.446c8.518-5.875,20.235-2.415,26.887,7.231
				l0.438,0.636c6.653,9.646,6.139,21.539-2.797,27.7C118.357,164.641,88.866,164.624,86.345,160.969z"/>
		</g>
	</g>
	<g>
		<g>
			<rect x="23.933" y="36" style="fill:#C8C8C8;" width="67" height="128"/>
		</g>
		<g>
			<rect x="23.933" y="36" style="fill:#DEDEDE;" width="33" height="128"/>
		</g>
		<g>
			<rect x="30.933" y="36" style="fill:#E9E9E9;" width="53" height="111"/>
		</g>
		<g>
			<rect x="30.933" y="66" style="fill:#FF9BB8;" width="53" height="81"/>
		</g>
		<g>
			<path style="fill:#FFFFFF;" d="M76.933,117.744c0,1.798-1.458,3.256-3.257,3.256H73.19c-1.799,0-3.257-1.458-3.257-3.256V77.256
				c0-1.798,1.458-3.256,3.257-3.256h0.486c1.799,0,3.257,1.458,3.257,3.256V117.744z"/>
		</g>
		<g>
			<circle style="fill:#FFFFFF;" cx="72.695" cy="129.124" r="3.658"/>
		</g>
		<g>
			<g>
				<path style="fill:#FFFFFF;" d="M59.933,66h-8V16.57C51.933,7.278,59.768,0,69.769,0h31.165v8H69.769
					c-4.768,0-9.835,3.004-9.835,8.57L59.933,66L59.933,66z"/>
			</g>
			<g>
				<path style="fill:#DF1700;" d="M59.933,66h-8V54h8V66z M59.933,44h-8V32h8V44z M59.933,22h-8v-5.43
					c0-2.831,0.685-5.48,2.035-7.877l6.97,3.927c-0.667,1.183-1.004,2.512-1.004,3.95L59.933,22L59.933,22z M66.501,8.452
					L64.29,0.763C66.051,0.257,67.895,0,69.769,0h7.165v8h-7.165C68.643,8,67.543,8.152,66.501,8.452z M98.933,8h-12V0h12V8z"/>
			</g>
		</g>
	</g>
</g>
</svg>